Coordinates
version=1
nRows=32
nColumns=12
inDegrees=yes

Units are S.I. units (second, meters, Newtons, ...)
Angles are in degrees

endheader
time	SC_y	SC_z	SC_x	AC_y	AC_z	AC_x	GH_y	GH_z	GH_yy	EL_x	PS_y
       0.0              -31.03          36.77          8.687           43.0         -9.757          1.599          171.0         -4.404          24.76          8.417          8.786
   0.04927              -31.03          36.77          8.691           43.0         -9.757          1.597          171.0         -4.395          24.76          8.426          8.801
   0.09854              -31.03          36.76          8.696           43.0         -9.756          1.596          171.0         -4.386          24.77          8.436          8.816
    0.1478              -31.03          36.75          8.701           43.0         -9.755          1.594          171.0         -4.376          24.77          8.447          8.833
    0.1971              -31.03          36.74          8.706          43.01         -9.755          1.592          171.0         -4.366          24.78          8.458           8.85
    0.2463              -31.03          36.74          8.712          43.01         -9.754           1.59          171.0         -4.355          24.78           8.47          8.869
    0.2956              -31.03          36.73          8.718          43.01         -9.753          1.588          171.0         -4.343          24.79          8.483          8.889
    0.3449              -31.03          36.72          8.724          43.02         -9.752          1.586          171.0         -4.331           24.8          8.496           8.91
    0.3941              -31.04          36.71          8.731          43.02         -9.751          1.584          171.0         -4.317          24.81          8.511          8.933
    0.4434              -31.04           36.7          8.738          43.02          -9.75          1.581          171.0         -4.303          24.81          8.527          8.958
    0.4927              -31.04          36.69          8.746          43.03         -9.749          1.579          170.9         -4.287          24.82          8.543          8.984
    0.5419              -31.04          36.68          8.755          43.03         -9.748          1.576          170.9          -4.27          24.83          8.562          9.012
    0.5912              -31.04          36.67          8.764          43.04         -9.747          1.573          170.9         -4.252          24.84          8.581          9.043
    0.6405              -31.04          36.65          8.774          43.04         -9.746          1.569          170.9         -4.233          24.85          8.602          9.076
    0.6897              -31.04          36.64          8.785          43.05         -9.744          1.566          170.9         -4.212          24.87          8.625          9.112
     0.739              -31.05          36.62          8.796          43.06         -9.743          1.562          170.9         -4.189          24.88           8.65           9.15
    0.7883              -31.05          36.61          8.809          43.06         -9.741          1.557          170.9         -4.164          24.89          8.677          9.192
    0.8376              -31.05          36.59          8.822          43.07         -9.739          1.553          170.8         -4.137          24.91          8.706          9.238
    0.8868              -31.05          36.57          8.837          43.08         -9.737          1.548          170.8         -4.108          24.92          8.738          9.288
    0.9361              -31.06          36.54          8.854          43.09         -9.735          1.542          170.8         -4.075          24.94          8.774          9.343
    0.9854              -31.06          36.52          8.872           43.1         -9.732          1.536          170.7          -4.04          24.96          8.812          9.403
     1.035              -31.06          36.49          8.892          43.11          -9.73          1.529          170.7         -4.001          24.98          8.855           9.47
     1.084              -31.07          36.46          8.914          43.12         -9.727          1.522          170.7         -3.958          25.01          8.901          9.543
     1.133              -31.07          36.43          8.938          43.14         -9.723          1.513          170.6          -3.91          25.04          8.953          9.624
     1.182              -31.08          36.39          8.965          43.15          -9.72          1.504          170.6         -3.857          25.07          9.011          9.714
     1.232              -31.08          36.35          8.995          43.17         -9.716          1.494          170.6         -3.797           25.1          9.076          9.815
     1.281              -31.09          36.31          9.029          43.19         -9.711          1.482          170.5         -3.731          25.14          9.148          9.927
      1.33              -31.09          36.25          9.067          43.21         -9.706           1.47          170.4         -3.656          25.18          9.229          10.05
     1.379               -31.1          36.19          9.109          43.23           -9.7          1.455          170.4         -3.572          25.23          9.321           10.2
     1.429              -31.11          36.13          9.158          43.26         -9.693          1.438          170.3         -3.476          25.28          9.425          10.36
     1.478              -31.12          36.05          9.214          43.29         -9.686          1.419          170.2         -3.367          25.34          9.544          10.55
     1.527              -31.13          35.97          9.277          43.33         -9.677          1.398          170.1         -3.241          25.41           9.68          10.76
